<?xml version="1.0" encoding="utf-8"?>
<!-- Generator: Adobe Illustrator 26.0.1, SVG Export Plug-In . SVG Version: 6.00 Build 0)  -->
<svg version="1.1" id="Layer_1" xmlns="http://www.w3.org/2000/svg" xmlns:xlink="http://www.w3.org/1999/xlink" x="0px" y="0px"
	 viewBox="0 0 64 64" style="enable-background:new 0 0 64 64;" xml:space="preserve">
<style type="text/css">
	.st0{fill:#767689;}
	.st1{fill:#5F5F70;}
	.st2{fill:#FE8657;}
	.st3{fill:#FE4A13;}
	.st4{fill:#16244D;}
</style>
<path class="st0" d="M45.7,18.3c-4-4-9.5-6-15.1-5.6c-6,0.4-13.6,0.3-17.9-4l-2-2C9.4,5.7,7.7,6,6.7,7.3c-0.7,1-0.7,2.4,0,3.4
	l9.7,9.7c-6.4,8.6-4.6,20.7,4,27.1c6.9,5.1,16.2,5.1,23.1,0l9.7,9.7c0.9,1.3,2.7,1.5,4,0.6c1.3-0.9,1.5-2.7,0.6-4
	c-0.2-0.2-0.4-0.4-0.6-0.6l-2-2c-4.3-4.2-4.4-11.9-4-17.8C51.7,27.8,49.7,22.3,45.7,18.3z"/>
<path class="st1" d="M8.7,5.9c-1.6,0-2.8,1.3-2.8,2.9c0,0.8,0.3,1.5,0.8,2l9.7,9.7l27.1,27.1l9.7,9.7c0.9,1.3,2.7,1.5,4,0.6
	c1.3-0.9,1.5-2.7,0.6-4c-0.2-0.2-0.4-0.4-0.6-0.6l-2-2c-4.3-4.3-4.4-12-4-17.9c0.8-10.7-7.3-20-18-20.7c-0.9-0.1-1.9-0.1-2.8,0
	c-6,0.4-13.6,0.3-17.9-4l-2-2C10.2,6.1,9.5,5.8,8.7,5.9L8.7,5.9z"/>
<path class="st2" d="M40.8,23c-4.1-4-10.5-4.8-15.4-1.7l17.3,17.3C45.8,33.6,45,27.1,40.8,23z M21.3,25.4
	c-3.7,5.9-1.8,13.6,4.1,17.3c4.1,2.5,9.2,2.5,13.2,0L21.3,25.4z"/>
<path class="st3" d="M32,25.2c-0.8,0-1.6,0.1-2.4,0.4l8.8,8.8c0.9-2.5,0.3-5.3-1.6-7.2v-0.1C35.5,25.9,33.8,25.2,32,25.2z
	 M25.6,29.6c-1.3,3.5,0.5,7.5,4,8.8c1.5,0.6,3.2,0.6,4.7,0L25.6,29.6z"/>
<path class="st4" d="M41.5,22.3L41.5,22.3c-4.5-4.4-11.3-5.1-16.6-1.8c-0.3,0.2-0.4,0.4-0.5,0.7c0,0.3,0.1,0.6,0.3,0.8L42,39.3
	c0.2,0.2,0.5,0.3,0.8,0.3c0.3,0,0.6-0.2,0.7-0.5C49.3,29.8,41.5,22.4,41.5,22.3z M42.4,37L27,21.6C36.8,16.9,47.1,27.2,42.4,37z"/>
<path class="st4" d="M58,58c1.5-1.5,1.5-3.9,0-5.4c0,0,0,0,0,0l-2-2c-4.1-4.1-4.1-11.7-3.7-17.1c0.8-11.2-7.6-21-18.8-21.8
	c-1-0.1-2-0.1-2.9,0c-5.4,0.4-13,0.4-17.1-3.7l-2-2C9.9,4.5,7.5,4.5,6,6s-1.5,3.9,0,5.4l9.1,9.1c-6.3,9.3-3.9,22,5.5,28.3
	c6.9,4.7,15.9,4.7,22.8,0l9.1,9.1C54.1,59.5,56.5,59.5,58,58z M19,45c-6.1-6.1-7.1-15.7-2.4-23l3.5,3.5c-3.6,6.5-1.2,14.8,5.3,18.4
	c4.1,2.2,9,2.2,13,0l3.5,3.5C34.7,52.1,25.2,51.1,19,45z M21.6,27L37,42.4c-5.7,2.8-12.6,0.4-15.4-5.4C20.1,33.9,20.1,30.2,21.6,27
	L21.6,27z M7.4,10C6.8,9.2,7,8,7.8,7.4c0.7-0.5,1.5-0.5,2.2,0l2,2c4.7,4.7,12.9,4.7,18.6,4.3c10.1-0.7,18.9,6.9,19.7,17
	c0.1,0.9,0.1,1.8,0,2.6c-0.4,5.8-0.4,14,4.3,18.7l2,2c0.6,0.8,0.5,2-0.3,2.6c-0.7,0.5-1.6,0.6-2.3,0L7.4,10z"/>
<path class="st4" d="M60,38.6h-0.9v-0.9c0-0.6-0.4-1-1-1s-1,0.4-1,1v0.9h-0.8c-0.6,0-1,0.4-1,1s0.4,1,1,1h0.8v0.9c0,0.6,0.4,1,1,1
	s1-0.4,1-1v-0.9H60c0.6,0,1-0.4,1-1S60.6,38.6,60,38.6z M46.4,4.9c-0.6,0-1,0.4-1,1v0.8h-0.9c-0.6,0-1,0.4-1,1s0.4,1,1,1h0.9v0.9
	c0,0.6,0.4,1,1,1s1-0.4,1-1V8.7h0.8c0.6,0,1-0.4,1-1s-0.4-1-1-1h-0.8V5.9C47.4,5.3,46.9,4.9,46.4,4.9z M4,40.4h0.9v0.9
	c0,0.6,0.4,1,1,1s1-0.4,1-1v-0.9h0.8c0.6,0,1-0.4,1-1s-0.4-1-1-1H6.9v-0.9c0-0.6-0.4-1-1-1s-1,0.4-1,1v0.9H4c-0.6,0-1,0.4-1,1
	S3.4,40.4,4,40.4z M39,55.3c-0.6,0-1,0.4-1,1v0.8h-0.9c-0.6,0-1,0.4-1,1s0.4,1,1,1H38V60c0,0.6,0.4,1,1,1s1-0.4,1-1v-0.9h0.9
	c0.6,0,1-0.4,1-1s-0.4-1-1-1H40v-0.8C40,55.7,39.6,55.3,39,55.3z"/>
</svg>
